<?xml version="1.0" encoding="UTF-8"?>
<svg width="700pt" height="700pt" version="1.1" viewBox="0 0 700 700" xmlns="http://www.w3.org/2000/svg" xmlns:xlink="http://www.w3.org/1999/xlink">
 <defs>
  <symbol id="y" overflow="visible">
   <path d="m18.766-1.125c-0.96875 0.5-1.9805 0.875-3.0312 1.125-1.043 0.25781-2.1367 0.39062-3.2812 0.39062-3.3984 0-6.0898-0.94531-8.0781-2.8438-1.9922-1.9062-2.9844-4.4844-2.9844-7.7344 0-3.2578 0.99219-5.8359 2.9844-7.7344 1.9883-1.9062 4.6797-2.8594 8.0781-2.8594 1.1445 0 2.2383 0.13281 3.2812 0.39062 1.0508 0.25 2.0625 0.625 3.0312 1.125v4.2188c-0.98047-0.65625-1.9453-1.1406-2.8906-1.4531-0.94922-0.3125-1.9492-0.46875-3-0.46875-1.875 0-3.3516 0.60547-4.4219 1.8125-1.0742 1.1992-1.6094 2.8555-1.6094 4.9688 0 2.1055 0.53516 3.7617 1.6094 4.9688 1.0703 1.1992 2.5469 1.7969 4.4219 1.7969 1.0508 0 2.0508-0.14844 3-0.45312 0.94531-0.3125 1.9102-0.80078 2.8906-1.4688z"/>
  </symbol>
  <symbol id="d" overflow="visible">
   <path d="m13.734-11.141c-0.4375-0.19531-0.87109-0.34375-1.2969-0.4375-0.41797-0.10156-0.83984-0.15625-1.2656-0.15625-1.2617 0-2.2305 0.40625-2.9062 1.2188-0.67969 0.80469-1.0156 1.9531-1.0156 3.4531v7.0625h-4.8906v-15.312h4.8906v2.5156c0.625-1 1.3438-1.7266 2.1562-2.1875 0.82031-0.46875 1.8008-0.70312 2.9375-0.70312 0.16406 0 0.34375 0.011719 0.53125 0.03125 0.19531 0.011719 0.47656 0.039062 0.84375 0.078125z"/>
  </symbol>
  <symbol id="a" overflow="visible">
   <path d="m17.641-7.7031v1.4062h-11.453c0.125 1.1484 0.53906 2.0078 1.25 2.5781 0.70703 0.57422 1.7031 0.85938 2.9844 0.85938 1.0312 0 2.082-0.14844 3.1562-0.45312 1.082-0.3125 2.1914-0.77344 3.3281-1.3906v3.7656c-1.1562 0.4375-2.3125 0.76562-3.4688 0.98438-1.1562 0.22656-2.3125 0.34375-3.4688 0.34375-2.7734 0-4.9297-0.70312-6.4688-2.1094-1.5312-1.4062-2.2969-3.3789-2.2969-5.9219 0-2.5 0.75391-4.4609 2.2656-5.8906 1.5078-1.4375 3.582-2.1562 6.2188-2.1562 2.4062 0 4.332 0.73047 5.7812 2.1875 1.4453 1.4492 2.1719 3.3828 2.1719 5.7969zm-5.0312-1.625c0-0.92578-0.27344-1.6719-0.8125-2.2344-0.54297-0.57031-1.25-0.85938-2.125-0.85938-0.94922 0-1.7188 0.26562-2.3125 0.79688s-0.96484 1.2969-1.1094 2.2969z"/>
  </symbol>
  <symbol id="e" overflow="visible">
   <path d="m9.2188-6.8906c-1.0234 0-1.793 0.17188-2.3125 0.51562-0.51172 0.34375-0.76562 0.85547-0.76562 1.5312 0 0.625 0.20703 1.1172 0.625 1.4688 0.41406 0.34375 0.98828 0.51562 1.7188 0.51562 0.92578 0 1.7031-0.32812 2.3281-0.98438 0.63281-0.66406 0.95312-1.4922 0.95312-2.4844v-0.5625zm7.4688-1.8438v8.7344h-4.9219v-2.2656c-0.65625 0.92969-1.3984 1.6055-2.2188 2.0312-0.82422 0.41406-1.8242 0.625-3 0.625-1.5859 0-2.8711-0.45703-3.8594-1.375-0.99219-0.92578-1.4844-2.1289-1.4844-3.6094 0-1.7891 0.61328-3.1016 1.8438-3.9375 1.2383-0.84375 3.1797-1.2656 5.8281-1.2656h2.8906v-0.39062c0-0.76953-0.30859-1.332-0.92188-1.6875-0.61719-0.36328-1.5703-0.54688-2.8594-0.54688-1.0547 0-2.0312 0.10547-2.9375 0.3125-0.89844 0.21094-1.7305 0.52344-2.5 0.9375v-3.7344c1.0391-0.25 2.0859-0.44141 3.1406-0.57812 1.0625-0.13281 2.125-0.20312 3.1875-0.20312 2.7578 0 4.75 0.54688 5.9688 1.6406 1.2266 1.0859 1.8438 2.8555 1.8438 5.3125z"/>
  </symbol>
  <symbol id="c" overflow="visible">
   <path d="m7.7031-19.656v4.3438h5.0469v3.5h-5.0469v6.5c0 0.71094 0.14062 1.1875 0.42188 1.4375s0.83594 0.375 1.6719 0.375h2.5156v3.5h-4.1875c-1.9375 0-3.3125-0.39844-4.125-1.2031-0.80469-0.8125-1.2031-2.1797-1.2031-4.1094v-6.5h-2.4219v-3.5h2.4219v-4.3438z"/>
  </symbol>
  <symbol id="l" overflow="visible">
   <path d="m12.766-13.078v-8.2031h4.9219v21.281h-4.9219v-2.2188c-0.66797 0.90625-1.4062 1.5703-2.2188 1.9844s-1.7578 0.625-2.8281 0.625c-1.8867 0-3.4336-0.75-4.6406-2.25-1.2109-1.5-1.8125-3.4258-1.8125-5.7812 0-2.3633 0.60156-4.2969 1.8125-5.7969 1.207-1.5 2.7539-2.25 4.6406-2.25 1.0625 0 2 0.21484 2.8125 0.64062 0.82031 0.42969 1.5664 1.0859 2.2344 1.9688zm-3.2188 9.9219c1.0391 0 1.8359-0.37891 2.3906-1.1406 0.55078-0.76953 0.82812-1.8828 0.82812-3.3438 0-1.457-0.27734-2.5664-0.82812-3.3281-0.55469-0.76953-1.3516-1.1562-2.3906-1.1562-1.043 0-1.8398 0.38672-2.3906 1.1562-0.55469 0.76172-0.82812 1.8711-0.82812 3.3281 0 1.4609 0.27344 2.5742 0.82812 3.3438 0.55078 0.76172 1.3477 1.1406 2.3906 1.1406z"/>
  </symbol>
  <symbol id="k" overflow="visible">
   <path d="m10.5-3.1562c1.0508 0 1.8516-0.37891 2.4062-1.1406 0.55078-0.76953 0.82812-1.8828 0.82812-3.3438 0-1.457-0.27734-2.5664-0.82812-3.3281-0.55469-0.76953-1.3555-1.1562-2.4062-1.1562-1.0547 0-1.8594 0.38672-2.4219 1.1562-0.55469 0.77344-0.82812 1.8828-0.82812 3.3281 0 1.4492 0.27344 2.5586 0.82812 3.3281 0.5625 0.77344 1.3672 1.1562 2.4219 1.1562zm-3.25-9.9219c0.67578-0.88281 1.4219-1.5391 2.2344-1.9688 0.82031-0.42578 1.7656-0.64062 2.8281-0.64062 1.8945 0 3.4453 0.75 4.6562 2.25 1.207 1.5 1.8125 3.4336 1.8125 5.7969 0 2.3555-0.60547 4.2812-1.8125 5.7812-1.2109 1.5-2.7617 2.25-4.6562 2.25-1.0625 0-2.0078-0.21094-2.8281-0.625-0.8125-0.42578-1.5586-1.0859-2.2344-1.9844v2.2188h-4.8906v-21.281h4.8906z"/>
  </symbol>
  <symbol id="j" overflow="visible">
   <path d="m0.34375-15.312h4.8906l4.125 10.391 3.5-10.391h4.8906l-6.4375 16.766c-0.64844 1.6953-1.4023 2.8828-2.2656 3.5625-0.86719 0.6875-2 1.0312-3.4062 1.0312h-2.8438v-3.2188h1.5312c0.83203 0 1.4375-0.13672 1.8125-0.40625 0.38281-0.26172 0.67969-0.73047 0.89062-1.4062l0.14062-0.42188z"/>
  </symbol>
  <symbol id="i" overflow="visible">
   <path d="m2.5781-20.406h6.6875l4.6562 10.922 4.6719-10.922h6.6875v20.406h-4.9844v-14.938l-4.7031 11.016h-3.3281l-4.7031-11.016v14.938h-4.9844z"/>
  </symbol>
  <symbol id="x" overflow="visible">
   <path d="m6.2188-7.8281-5.5156-7.4844h5.1719l3.1406 4.5312 3.1719-4.5312h5.1719l-5.5156 7.4531 5.7969 7.8594h-5.1875l-3.4375-4.8438-3.4062 4.8438h-5.1875z"/>
  </symbol>
  <symbol id="h" overflow="visible">
   <path d="m2.3594-15.312h4.8906v15.312h-4.8906zm0-5.9688h4.8906v4h-4.8906z"/>
  </symbol>
  <symbol id="g" overflow="visible">
   <path d="m16.547-12.766c0.61328-0.94531 1.3477-1.6719 2.2031-2.1719 0.85156-0.5 1.7891-0.75 2.8125-0.75 1.7578 0 3.0977 0.54688 4.0156 1.6406 0.92578 1.0859 1.3906 2.6562 1.3906 4.7188v9.3281h-4.9219v-7.9844-0.35938c0.007813-0.13281 0.015625-0.32031 0.015625-0.5625 0-1.082-0.16406-1.8633-0.48438-2.3438-0.3125-0.48828-0.82422-0.73438-1.5312-0.73438-0.92969 0-1.6484 0.38672-2.1562 1.1562-0.51172 0.76172-0.77344 1.8672-0.78125 3.3125v7.5156h-4.9219v-7.9844c0-1.6953-0.14844-2.7852-0.4375-3.2656-0.29297-0.48828-0.8125-0.73438-1.5625-0.73438-0.9375 0-1.6641 0.38672-2.1719 1.1562-0.51172 0.76172-0.76562 1.8594-0.76562 3.2969v7.5312h-4.9219v-15.312h4.9219v2.2344c0.60156-0.86328 1.2891-1.5156 2.0625-1.9531 0.78125-0.4375 1.6406-0.65625 2.5781-0.65625 1.0625 0 2 0.25781 2.8125 0.76562 0.8125 0.51172 1.4258 1.2305 1.8438 2.1562z"/>
  </symbol>
  <symbol id="w" overflow="visible">
   <path d="m2.5781-20.406h5.25v7.4375l7.5938-7.4375h6.1094l-9.8281 9.6562 10.844 10.75h-6.5938l-8.125-8.0469v8.0469h-5.25z"/>
  </symbol>
  <symbol id="f" overflow="visible">
   <path d="m2.1875-5.9688v-9.3438h4.9219v1.5312c0 0.83594-0.007813 1.875-0.015625 3.125-0.011719 1.25-0.015625 2.0859-0.015625 2.5 0 1.2422 0.03125 2.1328 0.09375 2.6719 0.070313 0.54297 0.17969 0.93359 0.32812 1.1719 0.20703 0.32422 0.47266 0.57422 0.79688 0.75 0.32031 0.16797 0.69141 0.25 1.1094 0.25 1.0195 0 1.8203-0.39062 2.4062-1.1719 0.58203-0.78125 0.875-1.8672 0.875-3.2656v-7.5625h4.8906v15.312h-4.8906v-2.2188c-0.74219 0.89844-1.5234 1.5586-2.3438 1.9844-0.82422 0.41406-1.7344 0.625-2.7344 0.625-1.7617 0-3.1055-0.53906-4.0312-1.625-0.92969-1.082-1.3906-2.6602-1.3906-4.7344z"/>
  </symbol>
  <symbol id="v" overflow="visible">
   <path d="m2.3594-21.281h4.8906v21.281h-4.8906z"/>
  </symbol>
  <symbol id="u" overflow="visible">
   <path d="m2.3594-21.281h4.8906v11.594l5.625-5.625h5.6875l-7.4688 7.0312 8.0625 8.2812h-5.9375l-5.9688-6.3906v6.3906h-4.8906z"/>
  </symbol>
  <symbol id="b" overflow="visible">
   <path d="m9.6406-12.188c-1.0859 0-1.9141 0.39062-2.4844 1.1719-0.57422 0.78125-0.85938 1.9062-0.85938 3.375s0.28516 2.5938 0.85938 3.375c0.57031 0.77344 1.3984 1.1562 2.4844 1.1562 1.0625 0 1.875-0.38281 2.4375-1.1562 0.57031-0.78125 0.85938-1.9062 0.85938-3.375s-0.28906-2.5938-0.85938-3.375c-0.5625-0.78125-1.375-1.1719-2.4375-1.1719zm0-3.5c2.6328 0 4.6914 0.71484 6.1719 2.1406 1.4766 1.418 2.2188 3.3867 2.2188 5.9062 0 2.5117-0.74219 4.4805-2.2188 5.9062-1.4805 1.418-3.5391 2.125-6.1719 2.125-2.6484 0-4.7148-0.70703-6.2031-2.125-1.4922-1.4258-2.2344-3.3945-2.2344-5.9062 0-2.5195 0.74219-4.4883 2.2344-5.9062 1.4883-1.4258 3.5547-2.1406 6.2031-2.1406z"/>
  </symbol>
  <symbol id="t" overflow="visible">
   <path d="m0.42188-15.312h4.8906l3.8281 10.578 3.7969-10.578h4.9062l-6.0312 15.312h-5.375z"/>
  </symbol>
  <symbol id="s" overflow="visible">
   <path d="m12.422-21.281v3.2188h-2.7031c-0.6875 0-1.1719 0.125-1.4531 0.375-0.27344 0.25-0.40625 0.6875-0.40625 1.3125v1.0625h4.1875v3.5h-4.1875v11.812h-4.8906v-11.812h-2.4375v-3.5h2.4375v-1.0625c0-1.6641 0.46094-2.8984 1.3906-3.7031 0.92578-0.80078 2.3672-1.2031 4.3281-1.2031z"/>
  </symbol>
  <symbol id="r" overflow="visible">
   <path d="m17.75-9.3281v9.3281h-4.9219v-7.1094c0-1.3438-0.03125-2.2656-0.09375-2.7656s-0.16797-0.86719-0.3125-1.1094c-0.1875-0.3125-0.44922-0.55469-0.78125-0.73438-0.32422-0.17578-0.69531-0.26562-1.1094-0.26562-1.0234 0-1.8242 0.39844-2.4062 1.1875-0.58594 0.78125-0.875 1.8711-0.875 3.2656v7.5312h-4.8906v-21.281h4.8906v8.2031c0.73828-0.88281 1.5195-1.5391 2.3438-1.9688 0.83203-0.42578 1.75-0.64062 2.75-0.64062 1.7695 0 3.1133 0.54688 4.0312 1.6406 0.91406 1.0859 1.375 2.6562 1.375 4.7188z"/>
  </symbol>
  <symbol id="q" overflow="visible">
   <path d="m2.5781-20.406h5.875l7.4219 14v-14h4.9844v20.406h-5.875l-7.4219-14v14h-4.9844z"/>
  </symbol>
  <symbol id="p" overflow="visible">
   <path d="m17.75-9.3281v9.3281h-4.9219v-7.1406c0-1.3203-0.03125-2.2344-0.09375-2.7344s-0.16797-0.86719-0.3125-1.1094c-0.1875-0.3125-0.44922-0.55469-0.78125-0.73438-0.32422-0.17578-0.69531-0.26562-1.1094-0.26562-1.0234 0-1.8242 0.39844-2.4062 1.1875-0.58594 0.78125-0.875 1.8711-0.875 3.2656v7.5312h-4.8906v-15.312h4.8906v2.2344c0.73828-0.88281 1.5195-1.5391 2.3438-1.9688 0.83203-0.42578 1.75-0.64062 2.75-0.64062 1.7695 0 3.1133 0.54688 4.0312 1.6406 0.91406 1.0859 1.375 2.6562 1.375 4.7188z"/>
  </symbol>
  <symbol id="o" overflow="visible">
   <path d="m2.5781-20.406h8.7344c2.5938 0 4.582 0.57812 5.9688 1.7344 1.3945 1.1484 2.0938 2.7891 2.0938 4.9219 0 2.1367-0.69922 3.7812-2.0938 4.9375-1.3867 1.1562-3.375 1.7344-5.9688 1.7344h-3.4844v7.0781h-5.25zm5.25 3.8125v5.7031h2.9219c1.0195 0 1.8047-0.25 2.3594-0.75 0.5625-0.5 0.84375-1.2031 0.84375-2.1094 0-0.91406-0.28125-1.6172-0.84375-2.1094-0.55469-0.48828-1.3398-0.73438-2.3594-0.73438z"/>
  </symbol>
  <symbol id="n" overflow="visible">
   <path d="m2.3594-15.312h4.8906v15.031c0 2.0508-0.49609 3.6172-1.4844 4.7031-0.98047 1.082-2.4062 1.625-4.2812 1.625h-2.4219v-3.2188h0.85938c0.92578 0 1.5625-0.21094 1.9062-0.625 0.35156-0.41797 0.53125-1.2461 0.53125-2.4844zm0-5.9688h4.8906v4h-4.8906z"/>
  </symbol>
  <symbol id="m" overflow="visible">
   <path d="m14.719-14.828v3.9844c-0.65625-0.45703-1.3242-0.79688-2-1.0156-0.66797-0.21875-1.3594-0.32812-2.0781-0.32812-1.3672 0-2.4336 0.40234-3.2031 1.2031-0.76172 0.79297-1.1406 1.9062-1.1406 3.3438 0 1.4297 0.37891 2.543 1.1406 3.3438 0.76953 0.79297 1.8359 1.1875 3.2031 1.1875 0.75781 0 1.4844-0.10938 2.1719-0.32812 0.6875-0.22656 1.3203-0.56641 1.9062-1.0156v4c-0.76172 0.28125-1.5391 0.48828-2.3281 0.625-0.78125 0.14453-1.5742 0.21875-2.375 0.21875-2.7617 0-4.9219-0.70703-6.4844-2.125-1.5547-1.4141-2.3281-3.3828-2.3281-5.9062 0-2.5312 0.77344-4.5039 2.3281-5.9219 1.5625-1.4141 3.7227-2.125 6.4844-2.125 0.80078 0 1.5938 0.074219 2.375 0.21875 0.78125 0.13672 1.5547 0.35156 2.3281 0.64062z"/>
  </symbol>
 </defs>
 <g>
  <path d="m209.55 208.73c1.7969 4.2656 6.7148 6.2734 11.008 4.457 8.3477-3.5352 17.109-5.6836 26.035-6.3906 13.199-1.0352 26.824 1.1719 39.34 6.4062 1.0586 0.44141 2.1602 0.65625 3.2383 0.65625 3.2891 0 6.4102-1.9414 7.7578-5.1641 1.7852-4.2773-0.23047-9.1992-4.5078-10.988-14.969-6.2539-31.246-8.9141-47.152-7.6484-10.73 0.84375-21.246 3.4219-31.266 7.668-4.2656 1.7969-6.2617 6.7305-4.4531 11.004z"/>
  <path d="m281.61 242.21c0 8.6562-7.0195 15.676-15.676 15.676s-15.672-7.0195-15.672-15.676 7.0156-15.676 15.672-15.676 15.676 7.0195 15.676 15.676"/>
  <path d="m402.15 441.52c-3.6719-2.832-8.9414-2.1445-11.781 1.5273-1.5859 2.0625-16.066 19.906-40.375 20.215-24.305-0.30859-38.793-18.156-40.375-20.215-2.832-3.6719-8.1016-4.3633-11.781-1.5273-3.6797 2.832-4.3633 8.1016-1.5273 11.781 3.3594 4.3633 21.32 25.57 51.84 26.684 0.33594 0.039063 0.66797 0.10547 1.0078 0.10547h0.23047c0.20703 0 0.40234-0.023438 0.60547-0.027344 0.20703 0 0.39844 0.027344 0.60547 0.027344h0.23047c0.34766 0 0.67578-0.0625 1.0078-0.10547 30.516-1.1133 48.48-22.32 51.84-26.684 2.8398-3.6719 2.1523-8.9453-1.5273-11.781z"/>
  <path d="m410.82 213.85c1.0742 0 2.1797-0.21094 3.2383-0.65625 12.512-5.2305 26.102-7.4375 39.34-6.4062 8.9336 0.70703 17.684 2.8555 26.035 6.3906 4.3008 1.8125 9.2109-0.19531 11.008-4.457 1.8086-4.2734-0.18359-9.207-4.457-11.008-10.02-4.2383-20.535-6.8203-31.266-7.668-15.883-1.2695-32.172 1.3906-47.152 7.6484-4.2773 1.7852-6.293 6.707-4.5078 10.988 1.3555 3.2305 4.4766 5.168 7.7617 5.168z"/>
  <path d="m449.73 242.21c0 8.6562-7.0156 15.676-15.672 15.676s-15.676-7.0195-15.676-15.676 7.0195-15.676 15.676-15.676 15.672 7.0195 15.672 15.676"/>
  <path d="m558.72 216.39c10.398-8.3086 17.09-21.074 17.09-35.387v-78.77c0-15.98-13.004-28.98-28.984-28.98h-16.32c-14.117 0-26.738 6.4961-35.055 16.648-4.625-5-9.6328-9.8906-15.047-14.594-48.488-42.109-110.01-48.324-130.41-47.211-20.418-1.1211-81.918 5.1055-130.41 47.215-5.4102 4.6992-10.422 9.5859-15.047 14.59-8.3164-10.152-20.938-16.648-35.055-16.648h-16.32c-15.98 0-28.984 13.004-28.984 28.98v78.77c0 14.32 6.6914 27.082 17.09 35.387-23.633 7.8555-39.121 31.711-35.559 57.27l4.2773 30.621c2.957 21.152 18.691 38.316 38.871 43.656-1.7656 11.129-2.2344 22.211-1.5664 33.09-1.2383 2.0625-1.6953 4.5078-1.1641 6.9453 0.29688 1.3828 1.1211 2.8438 2.2578 4.3438 4.0898 29.277 16.93 56.41 37.488 77.41 37.816 38.523 88.996 40.562 109.12 39.637 2.1562-0.039063 5.2969 0.33594 8.0547 2.7812 8.8984 7.8359 23.586 17.242 43.656 19.426 0.79688 0.25781 1.6289 0.42578 2.5039 0.42578 0.17187 0 0.35156-0.003906 0.52734-0.015625 0.089844-0.003906 0.17188-0.023437 0.26172-0.027344 0.089844 0.003907 0.17188 0.023438 0.26172 0.027344 0.17578 0.011719 0.34766 0.015625 0.52734 0.015625 0.875 0 1.707-0.16797 2.5039-0.42188 20.07-2.1836 34.758-11.598 43.695-19.461 2.6992-2.4062 5.8594-2.8281 7.9258-2.7539 20.211 0.89062 71.395-1.1094 109.22-39.641 20.699-21.141 33.336-48.266 37.418-77.332 1.1719-1.5234 2.0117-3.0117 2.3203-4.418 0.52734-2.4375 0.066406-4.8906-1.1758-6.9492 0.67578-10.902 0.16406-21.984-1.5742-33.074 20.188-5.332 35.93-22.5 38.887-43.664l4.2773-30.625c3.5547-25.551-11.941-49.414-35.566-57.266zm-28.211-126.34h16.32c6.7188 0 12.188 5.4648 12.188 12.18v78.77c0 13.707-9.7266 25.172-22.641 27.883-0.085937 0-0.15625-0.015625-0.24219-0.015625-0.59375 0.015625-1.1758 0.10547-1.7305 0.24219-1.2812 0.17969-2.5586 0.39062-3.8906 0.39062-7.0234 0-9.9414-11.895-11.156-21.879-2.9453-24.152-7.918-45.375-15.211-64.883l-2.1055-5.6172c0.74609-15.051 13.23-27.07 28.469-27.07zm-299.91-2.0586c44.438-38.586 102.14-44.18 118.86-43.098 0.35937 0.023437 0.72266 0.023437 1.082 0 16.699-1.0859 74.426 4.5195 118.86 43.098 6.5508 5.6914 12.465 11.66 17.68 17.762-1.1992 4.0664-1.8711 8.3555-1.8711 12.801 0 1.0039 0.17969 2 0.53125 2.9414l2.6719 7.1328c6.8203 18.25 11.484 38.215 14.27 61.027 3.3984 27.945 15.141 35.504 25.312 36.508-0.16406 16.23-2.1523 32.672-6.1719 49.016-3.4453 13.988-2.2695 28.926 3.2969 42.027 8.1719 19.453 11.723 39.715 11.008 59.328-2.4883 0.16406-5.2852 0.38672-8.7148 0.66797-9.1172 0.75-20.473 1.6797-26.555 1.0234-12.57-1.3281-21.273-5.4102-26.602-12.461-3.6797-4.8945-5.9375-11.07-8.3203-17.613-0.60938-1.6797-1.2266-3.3594-1.875-5.0508-9.9961-25.766-35.891-44.613-64.469-46.918-0.82812-0.0625-1.668-0.066406-2.5039-0.089844 1.3828-4.5742 2.1289-9.418 2.1289-14.438 0-27.156-14.438-77.867-49.211-77.867-34.777 0-49.211 50.715-49.211 77.867 0 5.0195 0.74609 9.8633 2.1289 14.438-0.84375 0.023438-1.6914 0.027344-2.5312 0.09375-28.547 2.2969-54.441 21.152-64.449 46.945-0.63672 1.6641-1.2539 3.3438-1.8633 5.0195-2.3906 6.5352-4.6406 12.719-8.3047 17.594-5.3438 7.0664-14.043 11.145-26.645 12.477-6.0469 0.66797-17.398-0.26953-26.527-1.0234-3.4219-0.28125-6.2148-0.50391-8.6953-0.66797-0.39062-11.078 0.55859-22.395 3-33.707 1.7031-8.3281 4.3906-16.957 7.9844-25.594 5.5781-13.137 6.7539-28.074 3.3203-42.027-4.0586-16.711-6.0195-32.789-6.1758-49.043 10.168-1.0078 21.902-8.5664 25.305-36.5 2.7812-22.82 7.4492-42.785 14.27-61.027l2.6719-7.1328c0.35156-0.94141 0.53125-1.9375 0.53125-2.9414 0-4.4453-0.67188-8.7344-1.8711-12.801 5.1914-6.1094 11.098-12.078 17.656-17.766zm119.4 226.89c-17.949-0.42969-32.414-15.164-32.414-33.215 0-20.727 11.441-61.066 32.414-61.066s32.414 40.344 32.414 61.066c0 18.051-14.465 32.789-32.414 33.215zm-13.41 14.695c1.293 2.0312 2.3633 4.1289 2.9531 6.2148 0.23438 0.94141 0.48047 1.875 0.69531 3.2188 0.51562 2.5703 0.72266 5.3203 0.61719 8.2617-0.042969 1.8047-0.25781 3.832-0.66797 6.2148-1.8438 11.02-7.7656 22.559-15.855 30.855-13.266 13.66-33.777 22.445-57.758 24.746-22.457 2.1328-53.711 2.4805-75.051-8.0234-2.7539-1.3477-7.1914-3.7578-11.82-6.4414 7.8359 0.57031 15.629 0.92578 21.223 0.3125 17.199-1.8203 30.066-8.2305 38.258-19.066 5.1758-6.8867 7.9688-14.543 10.672-21.941 0.58203-1.5977 1.1602-3.1875 1.7539-4.7383 7.5938-19.578 28.207-34.48 50.094-36.242 3.4727-0.26953 7.2109 0.0625 10.863 0.85547 6.2188 7.3945 14.523 12.953 24.023 15.773zm-0.21875 66.484c5.4805-5.6289 10.098-12.27 13.629-19.371 3.5352 7.1055 8.1406 13.742 13.621 19.363 1.5273 1.5742 3.1992 3.0391 4.8711 4.5078-12.062 3.0117-25.188 3.1367-37.324 0.32422 1.793-1.5664 3.5664-3.1445 5.2031-4.8242zm39.289-11.723c-8.0742-8.293-14-19.828-15.848-30.879-0.40234-2.3633-0.61719-4.3867-0.66797-6.2812-0.10156-2.8516 0.11328-5.6016 0.69531-8.5664 0.14062-0.94141 0.38672-1.875 0.56641-2.5977 0.63281-2.2617 1.7148-4.3945 3.0195-6.4414 9.4922-2.8281 17.797-8.3789 24.02-15.77 3.6406-0.79688 7.3711-1.1328 10.836-0.86328 21.914 1.7656 42.527 16.672 50.109 36.215 0.60547 1.5781 1.1875 3.168 1.7656 4.7656 2.7031 7.4023 5.5 15.055 10.691 21.957 8.1758 10.824 21.043 17.238 38.215 19.051 5.6289 0.61719 13.418 0.25781 21.254-0.3125-4.6328 2.6836-9.0703 5.0977-11.828 6.4453-21.34 10.496-52.594 10.148-75.035 8.0195-24.004-2.2852-44.516-11.078-57.793-24.742zm-234.68-282.11c0-6.7148 5.4648-12.18 12.188-12.18h16.32c15.242 0 27.719 12.02 28.469 27.074l-2.1055 5.6211c-7.293 19.504-12.258 40.723-15.211 64.883-1.2148 9.9805-4.1328 21.875-11.156 21.875-15.719 0-28.504-12.785-28.504-28.504zm-14.355 199.73-4.2773-30.613c-2.7266-19.621 11-37.805 30.625-40.543l2.3203-0.33203c0.44922 16.09 2.5469 32.129 6.5781 48.738 2.5742 10.477 1.707 21.656-2.4883 31.527-2.8906 6.9492-5.2344 13.883-7.0391 20.68-13.367-3.8672-23.738-15.328-25.719-29.457zm375.51 156c-33.074 33.684-78.449 35.43-96.543 34.613-7.3906-0.29688-14.422 2.2227-19.738 6.9609-7.2578 6.3906-19.344 14.133-35.844 15.523-16.504-1.3906-28.59-9.1328-35.812-15.488-5.3633-4.7773-12.348-7.293-19.867-6.9961-17.949 0.82422-63.379-0.93359-96.449-34.609-13.703-14-23.453-31.164-28.934-49.926 5.7578 3.3594 11.367 6.2383 15.164 8.1016 17.078 8.4062 38.73 10.93 58.598 10.93 9.0547 0 17.746-0.52734 25.465-1.2617 16.812-1.6133 32.227-6.125 45.371-13.02 11 4.5547 23.301 6.9336 35.668 6.9336 12.695 0 25.344-2.4766 36.562-7.2734 13.293 7.1016 28.973 11.727 46.082 13.367 7.7109 0.73438 16.398 1.2617 25.457 1.2617 19.863 0 41.512-2.5273 58.586-10.926 3.8008-1.8633 9.418-4.75 15.176-8.1094-5.4727 18.664-15.148 35.832-28.941 49.918zm75.508-186.62-4.2773 30.621c-1.9766 14.117-12.336 25.57-25.688 29.445-1.8711-6.9648-4.2227-13.898-7.0938-20.73-4.1719-9.8125-5.0391-20.996-2.457-31.473 3.9922-16.219 6.1719-32.547 6.6367-48.727l2.2891 0.33203c19.598 2.7266 33.324 20.914 30.59 40.531z"/>
  <use x="70" y="644" xlink:href="#y"/>
  <use x="90.550781" y="644" xlink:href="#d"/>
  <use x="104.359375" y="644" xlink:href="#a"/>
  <use x="123.347656" y="644" xlink:href="#e"/>
  <use x="142.242188" y="644" xlink:href="#c"/>
  <use x="155.628906" y="644" xlink:href="#a"/>
  <use x="174.617188" y="644" xlink:href="#l"/>
  <use x="204.410156" y="644" xlink:href="#k"/>
  <use x="224.453125" y="644" xlink:href="#j"/>
  <use x="252.453125" y="644" xlink:href="#i"/>
  <use x="280.3125" y="644" xlink:href="#e"/>
  <use x="299.210938" y="644" xlink:href="#x"/>
  <use x="317.269531" y="644" xlink:href="#h"/>
  <use x="326.867188" y="644" xlink:href="#g"/>
  <use x="365.789062" y="644" xlink:href="#w"/>
  <use x="387.488281" y="644" xlink:href="#f"/>
  <use x="407.421875" y="644" xlink:href="#v"/>
  <use x="417.019531" y="644" xlink:href="#h"/>
  <use x="426.617188" y="644" xlink:href="#u"/>
  <use x="445.238281" y="644" xlink:href="#b"/>
  <use x="464.476562" y="644" xlink:href="#t"/>
  <use x="70" y="672" xlink:href="#s"/>
  <use x="82.183594" y="672" xlink:href="#d"/>
  <use x="95.992188" y="672" xlink:href="#b"/>
  <use x="115.226562" y="672" xlink:href="#g"/>
  <use x="154.152344" y="672" xlink:href="#c"/>
  <use x="167.535156" y="672" xlink:href="#r"/>
  <use x="187.46875" y="672" xlink:href="#a"/>
  <use x="216.207031" y="672" xlink:href="#q"/>
  <use x="239.640625" y="672" xlink:href="#b"/>
  <use x="258.878906" y="672" xlink:href="#f"/>
  <use x="278.8125" y="672" xlink:href="#p"/>
  <use x="308.492188" y="672" xlink:href="#o"/>
  <use x="329.015625" y="672" xlink:href="#d"/>
  <use x="342.820312" y="672" xlink:href="#b"/>
  <use x="362.058594" y="672" xlink:href="#n"/>
  <use x="371.65625" y="672" xlink:href="#a"/>
  <use x="390.648438" y="672" xlink:href="#m"/>
  <use x="407.242188" y="672" xlink:href="#c"/>
 </g>
</svg>
