<?xml version="1.0" encoding="UTF-8"?>
<svg width="700pt" height="700pt" version="1.1" viewBox="0 0 700 700" xmlns="http://www.w3.org/2000/svg" xmlns:xlink="http://www.w3.org/1999/xlink">
 <defs>
  <symbol id="y" overflow="visible">
   <path d="m18.766-1.125c-0.96875 0.5-1.9805 0.875-3.0312 1.125-1.043 0.25781-2.1367 0.39062-3.2812 0.39062-3.3984 0-6.0898-0.94531-8.0781-2.8438-1.9922-1.9062-2.9844-4.4844-2.9844-7.7344 0-3.2578 0.99219-5.8359 2.9844-7.7344 1.9883-1.9062 4.6797-2.8594 8.0781-2.8594 1.1445 0 2.2383 0.13281 3.2812 0.39062 1.0508 0.25 2.0625 0.625 3.0312 1.125v4.2188c-0.98047-0.65625-1.9453-1.1406-2.8906-1.4531-0.94922-0.3125-1.9492-0.46875-3-0.46875-1.875 0-3.3516 0.60547-4.4219 1.8125-1.0742 1.1992-1.6094 2.8555-1.6094 4.9688 0 2.1055 0.53516 3.7617 1.6094 4.9688 1.0703 1.1992 2.5469 1.7969 4.4219 1.7969 1.0508 0 2.0508-0.14844 3-0.45312 0.94531-0.3125 1.9102-0.80078 2.8906-1.4688z"/>
  </symbol>
  <symbol id="d" overflow="visible">
   <path d="m13.734-11.141c-0.4375-0.19531-0.87109-0.34375-1.2969-0.4375-0.41797-0.10156-0.83984-0.15625-1.2656-0.15625-1.2617 0-2.2305 0.40625-2.9062 1.2188-0.67969 0.80469-1.0156 1.9531-1.0156 3.4531v7.0625h-4.8906v-15.312h4.8906v2.5156c0.625-1 1.3438-1.7266 2.1562-2.1875 0.82031-0.46875 1.8008-0.70312 2.9375-0.70312 0.16406 0 0.34375 0.011719 0.53125 0.03125 0.19531 0.011719 0.47656 0.039062 0.84375 0.078125z"/>
  </symbol>
  <symbol id="a" overflow="visible">
   <path d="m17.641-7.7031v1.4062h-11.453c0.125 1.1484 0.53906 2.0078 1.25 2.5781 0.70703 0.57422 1.7031 0.85938 2.9844 0.85938 1.0312 0 2.082-0.14844 3.1562-0.45312 1.082-0.3125 2.1914-0.77344 3.3281-1.3906v3.7656c-1.1562 0.4375-2.3125 0.76562-3.4688 0.98438-1.1562 0.22656-2.3125 0.34375-3.4688 0.34375-2.7734 0-4.9297-0.70312-6.4688-2.1094-1.5312-1.4062-2.2969-3.3789-2.2969-5.9219 0-2.5 0.75391-4.4609 2.2656-5.8906 1.5078-1.4375 3.582-2.1562 6.2188-2.1562 2.4062 0 4.332 0.73047 5.7812 2.1875 1.4453 1.4492 2.1719 3.3828 2.1719 5.7969zm-5.0312-1.625c0-0.92578-0.27344-1.6719-0.8125-2.2344-0.54297-0.57031-1.25-0.85938-2.125-0.85938-0.94922 0-1.7188 0.26562-2.3125 0.79688s-0.96484 1.2969-1.1094 2.2969z"/>
  </symbol>
  <symbol id="e" overflow="visible">
   <path d="m9.2188-6.8906c-1.0234 0-1.793 0.17188-2.3125 0.51562-0.51172 0.34375-0.76562 0.85547-0.76562 1.5312 0 0.625 0.20703 1.1172 0.625 1.4688 0.41406 0.34375 0.98828 0.51562 1.7188 0.51562 0.92578 0 1.7031-0.32812 2.3281-0.98438 0.63281-0.66406 0.95312-1.4922 0.95312-2.4844v-0.5625zm7.4688-1.8438v8.7344h-4.9219v-2.2656c-0.65625 0.92969-1.3984 1.6055-2.2188 2.0312-0.82422 0.41406-1.8242 0.625-3 0.625-1.5859 0-2.8711-0.45703-3.8594-1.375-0.99219-0.92578-1.4844-2.1289-1.4844-3.6094 0-1.7891 0.61328-3.1016 1.8438-3.9375 1.2383-0.84375 3.1797-1.2656 5.8281-1.2656h2.8906v-0.39062c0-0.76953-0.30859-1.332-0.92188-1.6875-0.61719-0.36328-1.5703-0.54688-2.8594-0.54688-1.0547 0-2.0312 0.10547-2.9375 0.3125-0.89844 0.21094-1.7305 0.52344-2.5 0.9375v-3.7344c1.0391-0.25 2.0859-0.44141 3.1406-0.57812 1.0625-0.13281 2.125-0.20312 3.1875-0.20312 2.7578 0 4.75 0.54688 5.9688 1.6406 1.2266 1.0859 1.8438 2.8555 1.8438 5.3125z"/>
  </symbol>
  <symbol id="c" overflow="visible">
   <path d="m7.7031-19.656v4.3438h5.0469v3.5h-5.0469v6.5c0 0.71094 0.14062 1.1875 0.42188 1.4375s0.83594 0.375 1.6719 0.375h2.5156v3.5h-4.1875c-1.9375 0-3.3125-0.39844-4.125-1.2031-0.80469-0.8125-1.2031-2.1797-1.2031-4.1094v-6.5h-2.4219v-3.5h2.4219v-4.3438z"/>
  </symbol>
  <symbol id="l" overflow="visible">
   <path d="m12.766-13.078v-8.2031h4.9219v21.281h-4.9219v-2.2188c-0.66797 0.90625-1.4062 1.5703-2.2188 1.9844s-1.7578 0.625-2.8281 0.625c-1.8867 0-3.4336-0.75-4.6406-2.25-1.2109-1.5-1.8125-3.4258-1.8125-5.7812 0-2.3633 0.60156-4.2969 1.8125-5.7969 1.207-1.5 2.7539-2.25 4.6406-2.25 1.0625 0 2 0.21484 2.8125 0.64062 0.82031 0.42969 1.5664 1.0859 2.2344 1.9688zm-3.2188 9.9219c1.0391 0 1.8359-0.37891 2.3906-1.1406 0.55078-0.76953 0.82812-1.8828 0.82812-3.3438 0-1.457-0.27734-2.5664-0.82812-3.3281-0.55469-0.76953-1.3516-1.1562-2.3906-1.1562-1.043 0-1.8398 0.38672-2.3906 1.1562-0.55469 0.76172-0.82812 1.8711-0.82812 3.3281 0 1.4609 0.27344 2.5742 0.82812 3.3438 0.55078 0.76172 1.3477 1.1406 2.3906 1.1406z"/>
  </symbol>
  <symbol id="k" overflow="visible">
   <path d="m10.5-3.1562c1.0508 0 1.8516-0.37891 2.4062-1.1406 0.55078-0.76953 0.82812-1.8828 0.82812-3.3438 0-1.457-0.27734-2.5664-0.82812-3.3281-0.55469-0.76953-1.3555-1.1562-2.4062-1.1562-1.0547 0-1.8594 0.38672-2.4219 1.1562-0.55469 0.77344-0.82812 1.8828-0.82812 3.3281 0 1.4492 0.27344 2.5586 0.82812 3.3281 0.5625 0.77344 1.3672 1.1562 2.4219 1.1562zm-3.25-9.9219c0.67578-0.88281 1.4219-1.5391 2.2344-1.9688 0.82031-0.42578 1.7656-0.64062 2.8281-0.64062 1.8945 0 3.4453 0.75 4.6562 2.25 1.207 1.5 1.8125 3.4336 1.8125 5.7969 0 2.3555-0.60547 4.2812-1.8125 5.7812-1.2109 1.5-2.7617 2.25-4.6562 2.25-1.0625 0-2.0078-0.21094-2.8281-0.625-0.8125-0.42578-1.5586-1.0859-2.2344-1.9844v2.2188h-4.8906v-21.281h4.8906z"/>
  </symbol>
  <symbol id="j" overflow="visible">
   <path d="m0.34375-15.312h4.8906l4.125 10.391 3.5-10.391h4.8906l-6.4375 16.766c-0.64844 1.6953-1.4023 2.8828-2.2656 3.5625-0.86719 0.6875-2 1.0312-3.4062 1.0312h-2.8438v-3.2188h1.5312c0.83203 0 1.4375-0.13672 1.8125-0.40625 0.38281-0.26172 0.67969-0.73047 0.89062-1.4062l0.14062-0.42188z"/>
  </symbol>
  <symbol id="i" overflow="visible">
   <path d="m2.5781-20.406h6.6875l4.6562 10.922 4.6719-10.922h6.6875v20.406h-4.9844v-14.938l-4.7031 11.016h-3.3281l-4.7031-11.016v14.938h-4.9844z"/>
  </symbol>
  <symbol id="x" overflow="visible">
   <path d="m6.2188-7.8281-5.5156-7.4844h5.1719l3.1406 4.5312 3.1719-4.5312h5.1719l-5.5156 7.4531 5.7969 7.8594h-5.1875l-3.4375-4.8438-3.4062 4.8438h-5.1875z"/>
  </symbol>
  <symbol id="h" overflow="visible">
   <path d="m2.3594-15.312h4.8906v15.312h-4.8906zm0-5.9688h4.8906v4h-4.8906z"/>
  </symbol>
  <symbol id="g" overflow="visible">
   <path d="m16.547-12.766c0.61328-0.94531 1.3477-1.6719 2.2031-2.1719 0.85156-0.5 1.7891-0.75 2.8125-0.75 1.7578 0 3.0977 0.54688 4.0156 1.6406 0.92578 1.0859 1.3906 2.6562 1.3906 4.7188v9.3281h-4.9219v-7.9844-0.35938c0.007813-0.13281 0.015625-0.32031 0.015625-0.5625 0-1.082-0.16406-1.8633-0.48438-2.3438-0.3125-0.48828-0.82422-0.73438-1.5312-0.73438-0.92969 0-1.6484 0.38672-2.1562 1.1562-0.51172 0.76172-0.77344 1.8672-0.78125 3.3125v7.5156h-4.9219v-7.9844c0-1.6953-0.14844-2.7852-0.4375-3.2656-0.29297-0.48828-0.8125-0.73438-1.5625-0.73438-0.9375 0-1.6641 0.38672-2.1719 1.1562-0.51172 0.76172-0.76562 1.8594-0.76562 3.2969v7.5312h-4.9219v-15.312h4.9219v2.2344c0.60156-0.86328 1.2891-1.5156 2.0625-1.9531 0.78125-0.4375 1.6406-0.65625 2.5781-0.65625 1.0625 0 2 0.25781 2.8125 0.76562 0.8125 0.51172 1.4258 1.2305 1.8438 2.1562z"/>
  </symbol>
  <symbol id="w" overflow="visible">
   <path d="m2.5781-20.406h5.25v7.4375l7.5938-7.4375h6.1094l-9.8281 9.6562 10.844 10.75h-6.5938l-8.125-8.0469v8.0469h-5.25z"/>
  </symbol>
  <symbol id="f" overflow="visible">
   <path d="m2.1875-5.9688v-9.3438h4.9219v1.5312c0 0.83594-0.007813 1.875-0.015625 3.125-0.011719 1.25-0.015625 2.0859-0.015625 2.5 0 1.2422 0.03125 2.1328 0.09375 2.6719 0.070313 0.54297 0.17969 0.93359 0.32812 1.1719 0.20703 0.32422 0.47266 0.57422 0.79688 0.75 0.32031 0.16797 0.69141 0.25 1.1094 0.25 1.0195 0 1.8203-0.39062 2.4062-1.1719 0.58203-0.78125 0.875-1.8672 0.875-3.2656v-7.5625h4.8906v15.312h-4.8906v-2.2188c-0.74219 0.89844-1.5234 1.5586-2.3438 1.9844-0.82422 0.41406-1.7344 0.625-2.7344 0.625-1.7617 0-3.1055-0.53906-4.0312-1.625-0.92969-1.082-1.3906-2.6602-1.3906-4.7344z"/>
  </symbol>
  <symbol id="v" overflow="visible">
   <path d="m2.3594-21.281h4.8906v21.281h-4.8906z"/>
  </symbol>
  <symbol id="u" overflow="visible">
   <path d="m2.3594-21.281h4.8906v11.594l5.625-5.625h5.6875l-7.4688 7.0312 8.0625 8.2812h-5.9375l-5.9688-6.3906v6.3906h-4.8906z"/>
  </symbol>
  <symbol id="b" overflow="visible">
   <path d="m9.6406-12.188c-1.0859 0-1.9141 0.39062-2.4844 1.1719-0.57422 0.78125-0.85938 1.9062-0.85938 3.375s0.28516 2.5938 0.85938 3.375c0.57031 0.77344 1.3984 1.1562 2.4844 1.1562 1.0625 0 1.875-0.38281 2.4375-1.1562 0.57031-0.78125 0.85938-1.9062 0.85938-3.375s-0.28906-2.5938-0.85938-3.375c-0.5625-0.78125-1.375-1.1719-2.4375-1.1719zm0-3.5c2.6328 0 4.6914 0.71484 6.1719 2.1406 1.4766 1.418 2.2188 3.3867 2.2188 5.9062 0 2.5117-0.74219 4.4805-2.2188 5.9062-1.4805 1.418-3.5391 2.125-6.1719 2.125-2.6484 0-4.7148-0.70703-6.2031-2.125-1.4922-1.4258-2.2344-3.3945-2.2344-5.9062 0-2.5195 0.74219-4.4883 2.2344-5.9062 1.4883-1.4258 3.5547-2.1406 6.2031-2.1406z"/>
  </symbol>
  <symbol id="t" overflow="visible">
   <path d="m0.42188-15.312h4.8906l3.8281 10.578 3.7969-10.578h4.9062l-6.0312 15.312h-5.375z"/>
  </symbol>
  <symbol id="s" overflow="visible">
   <path d="m12.422-21.281v3.2188h-2.7031c-0.6875 0-1.1719 0.125-1.4531 0.375-0.27344 0.25-0.40625 0.6875-0.40625 1.3125v1.0625h4.1875v3.5h-4.1875v11.812h-4.8906v-11.812h-2.4375v-3.5h2.4375v-1.0625c0-1.6641 0.46094-2.8984 1.3906-3.7031 0.92578-0.80078 2.3672-1.2031 4.3281-1.2031z"/>
  </symbol>
  <symbol id="r" overflow="visible">
   <path d="m17.75-9.3281v9.3281h-4.9219v-7.1094c0-1.3438-0.03125-2.2656-0.09375-2.7656s-0.16797-0.86719-0.3125-1.1094c-0.1875-0.3125-0.44922-0.55469-0.78125-0.73438-0.32422-0.17578-0.69531-0.26562-1.1094-0.26562-1.0234 0-1.8242 0.39844-2.4062 1.1875-0.58594 0.78125-0.875 1.8711-0.875 3.2656v7.5312h-4.8906v-21.281h4.8906v8.2031c0.73828-0.88281 1.5195-1.5391 2.3438-1.9688 0.83203-0.42578 1.75-0.64062 2.75-0.64062 1.7695 0 3.1133 0.54688 4.0312 1.6406 0.91406 1.0859 1.375 2.6562 1.375 4.7188z"/>
  </symbol>
  <symbol id="q" overflow="visible">
   <path d="m2.5781-20.406h5.875l7.4219 14v-14h4.9844v20.406h-5.875l-7.4219-14v14h-4.9844z"/>
  </symbol>
  <symbol id="p" overflow="visible">
   <path d="m17.75-9.3281v9.3281h-4.9219v-7.1406c0-1.3203-0.03125-2.2344-0.09375-2.7344s-0.16797-0.86719-0.3125-1.1094c-0.1875-0.3125-0.44922-0.55469-0.78125-0.73438-0.32422-0.17578-0.69531-0.26562-1.1094-0.26562-1.0234 0-1.8242 0.39844-2.4062 1.1875-0.58594 0.78125-0.875 1.8711-0.875 3.2656v7.5312h-4.8906v-15.312h4.8906v2.2344c0.73828-0.88281 1.5195-1.5391 2.3438-1.9688 0.83203-0.42578 1.75-0.64062 2.75-0.64062 1.7695 0 3.1133 0.54688 4.0312 1.6406 0.91406 1.0859 1.375 2.6562 1.375 4.7188z"/>
  </symbol>
  <symbol id="o" overflow="visible">
   <path d="m2.5781-20.406h8.7344c2.5938 0 4.582 0.57812 5.9688 1.7344 1.3945 1.1484 2.0938 2.7891 2.0938 4.9219 0 2.1367-0.69922 3.7812-2.0938 4.9375-1.3867 1.1562-3.375 1.7344-5.9688 1.7344h-3.4844v7.0781h-5.25zm5.25 3.8125v5.7031h2.9219c1.0195 0 1.8047-0.25 2.3594-0.75 0.5625-0.5 0.84375-1.2031 0.84375-2.1094 0-0.91406-0.28125-1.6172-0.84375-2.1094-0.55469-0.48828-1.3398-0.73438-2.3594-0.73438z"/>
  </symbol>
  <symbol id="n" overflow="visible">
   <path d="m2.3594-15.312h4.8906v15.031c0 2.0508-0.49609 3.6172-1.4844 4.7031-0.98047 1.082-2.4062 1.625-4.2812 1.625h-2.4219v-3.2188h0.85938c0.92578 0 1.5625-0.21094 1.9062-0.625 0.35156-0.41797 0.53125-1.2461 0.53125-2.4844zm0-5.9688h4.8906v4h-4.8906z"/>
  </symbol>
  <symbol id="m" overflow="visible">
   <path d="m14.719-14.828v3.9844c-0.65625-0.45703-1.3242-0.79688-2-1.0156-0.66797-0.21875-1.3594-0.32812-2.0781-0.32812-1.3672 0-2.4336 0.40234-3.2031 1.2031-0.76172 0.79297-1.1406 1.9062-1.1406 3.3438 0 1.4297 0.37891 2.543 1.1406 3.3438 0.76953 0.79297 1.8359 1.1875 3.2031 1.1875 0.75781 0 1.4844-0.10938 2.1719-0.32812 0.6875-0.22656 1.3203-0.56641 1.9062-1.0156v4c-0.76172 0.28125-1.5391 0.48828-2.3281 0.625-0.78125 0.14453-1.5742 0.21875-2.375 0.21875-2.7617 0-4.9219-0.70703-6.4844-2.125-1.5547-1.4141-2.3281-3.3828-2.3281-5.9062 0-2.5312 0.77344-4.5039 2.3281-5.9219 1.5625-1.4141 3.7227-2.125 6.4844-2.125 0.80078 0 1.5938 0.074219 2.375 0.21875 0.78125 0.13672 1.5547 0.35156 2.3281 0.64062z"/>
  </symbol>
 </defs>
 <g>
  <path d="m262.41 225.79c1.6562 1.8633 3.9648 2.8164 6.2812 2.8164 1.9805 0 3.9766-0.69922 5.5703-2.1172 8.5352-7.5781 19.074-14.441 22.547-14.695 3.6523-0.26172 18.387 5.5664 31.383 12.473 4.0898 2.168 9.1797 0.62891 11.355-3.4766 2.1797-4.0938 0.62109-9.1836-3.4727-11.355-6.7148-3.5742-29.391-15.16-40.473-14.391-11.363 0.8125-27.754 14.668-32.512 18.891-3.4453 3.082-3.7539 8.3906-0.67969 11.855z"/>
  <path d="m545.75 388.75c-1.3555-7.7344-2.8633-15.418-4.3633-23.062-5.9062-30.082-11.484-58.492-7.3984-87.625 4.3672-31.137 7.6953-64.832 2.4297-100.27-5.3828-36.281-10.949-73.809-44.004-105.78-44.746-43.262-106.13-44-108.73-44.012h-0.38672c-30.594 0-63.391 13.094-79.129 22.395-45.16-6.0312-86.039 8.5117-112.33 40.098-0.24219 0.26953-0.46484 0.55469-0.67188 0.85547-18.723 27.195-23.191 57.18-27.551 86.469-5.2539 35.336-1.9492 69.047 2.4062 100.22 4.0938 29.191-1.4961 57.637-7.4141 87.746-1.5 7.6172-3 15.27-4.3555 22.988-7.9922 45.824 14.117 94.473 37.016 124.64-1.4297 1.5508-2.9102 3.0391-4.3047 4.625-3.0742 3.4766-2.7422 8.7852 0.73437 11.855 1.5859 1.4062 3.5664 2.1016 5.543 2.1016 2.3281 0 4.6406-0.95703 6.3008-2.8398 12.93-14.637 27.301-27.781 42.711-39.07 16.801-12.297 34.938-22.328 53.898-30.055 8.9609 6.7383 27.867 16.781 54.531 17.355 26.375-0.57031 45.219-10.617 54.168-17.355 18.961 7.75 37.102 17.773 53.898 30.051 15.488 11.34 29.836 24.484 42.656 39.059 1.6641 1.8906 3.9805 2.8555 6.3164 2.8555 1.9727 0 3.9492-0.6875 5.5391-2.0938 3.4844-3.0625 3.832-8.3711 0.76172-11.855-1.5625-1.7812-3.2266-3.4648-4.832-5.2031 22.758-30.227 44.535-78.578 36.559-124.1zm-313.43 87.793c-10.215 7.4805-19.93 15.809-29.172 24.719-21.465-29.16-38.852-72.363-32.363-109.59 1.332-7.5938 2.8164-15.137 4.2969-22.641 5.9297-30.152 12.062-61.324 7.5703-93.32-4.1758-29.922-7.3594-62.195-2.3867-95.703 4.207-28.223 8.1797-54.879 24.5-78.785 22.488-26.863 55.887-39 94.535-34.523 3.1289 12.09 7.9141 24.566 14.941 38.668-10.773 14.727-22.473 28.957-34.91 42.297-13.461 14.441-26.719 25.855-40.234 37.238-2.082 1.7578-3.1875 4.4258-2.9531 7.1406 1.1016 12.941 2.2969 24.91 3.4883 35.863-8.9922-2.207-19.117-2.1562-26.371 2.6133-11.945 7.8555-9.6719 22.586-8.1641 32.34 1.1328 7.3242 3.2383 20.965 16.805 32.266 4.1328 3.4453 8.5234 5.9414 12.82 7.8242l-4.0312 18.098c-9.0625-4.8438-20.453-4.5352-29.316 1.8984-12.32 8.9609-15.07 26.281-6.1328 38.613l2.7266 3.7539c0.003906 0.003906 0.003906 0.011719 0.011719 0.015625l22.637 31.141c1.6406 2.2617 4.1992 3.4609 6.7969 3.4609 1.7148 0 3.4375-0.51953 4.9336-1.6055l31.141-22.637c0.027344-0.015625 0.042969-0.042969 0.066407-0.0625l3.6914-2.6875c4.6016-3.3555 7.8633-7.875 9.6758-12.863 2.8008 3.4492 5.9141 6.9141 9.5273 10.293 6.3047 5.8984 13.57 10.879 21.52 15.109 1.5117 8.0469 2.168 19.332-1.4727 31.93-2.7539 9.5469-7.7227 18.504-14.297 26.051-21.109 8.3789-41.258 19.445-59.879 33.082zm98.348-341.63c16.191 26.77 36.332 48.109 55.82 64.602-8.9727 3.4453-17.848 7.9258-21.578 9.9023-4.0977 2.1719-5.6602 7.2578-3.4883 11.355 1.5117 2.8438 4.418 4.4688 7.4258 4.4688 1.3281 0 2.6758-0.32031 3.9258-0.98047 10.297-5.4609 23.613-11.16 29.559-12.23 16.066 11.859 30.688 20.281 41.031 25.625l-0.035156 0.28516c-1.4844 12.691-3.0234 24.754-4.5977 35.926-1.3438 10.176-2.5312 17.328-3.9805 23.984-1.7461 8.3594-4.0469 15.566-7.4922 23.426-4.0977 9.5039-10.297 23.863-24.188 36.844-9.1328 8.5508-20.559 15.098-33.965 19.449-11.996 3.8906-25.211 3.8906-37.207-0.003906-13.41-4.3555-24.84-10.898-33.977-19.441-13.805-12.914-20.074-27.312-24.227-36.836-6.7188-15.445-8.8125-28.242-11.465-47.48-2.4453-17.742-5.9805-44.918-8.9805-78.848 12.777-10.82 25.387-21.906 38.359-35.816 11.059-11.859 21.566-24.387 31.387-37.34 2.3984 4.2031 4.9062 8.5391 7.6719 13.109zm162.21 216.73-21 28.895-28.879-21.004c-5.0234-3.6641-6.1445-10.734-2.4766-15.77 1.7695-2.4414 4.3867-4.043 7.3633-4.5117 2.9961-0.46484 5.9648 0.24609 8.4062 2.0156l3.7812 2.7539c0.003906 0.003906 0.011719 0.011718 0.015625 0.015624 3.1797 2.3125 7.4414 2.0508 10.332-0.37891 0.50781-0.42969 0.99219-0.90234 1.3984-1.4688 0-0.003906 0.003906-0.011718 0.003906-0.011718l2.7656-3.7969c1.7695-2.4414 4.3867-4.043 7.3633-4.5117 3.0117-0.48047 5.9688 0.24609 8.4102 2.0234 5.0352 3.6445 6.1641 10.723 2.5156 15.75zm-39.262-28.926c-2.75-0.39062-5.543-0.50391-8.3555-0.0625-0.16797 0.027344-0.3125 0.09375-0.48047 0.125 1.9609-5 3.5898-9.9844 4.9219-15.16 0.14062-0.023438 0.28516-0.042969 0.42969-0.0625zm-0.23828-32.965c0.66797-4.0195 1.3164-8.457 2-13.625 1.3086-9.3086 2.6055-19.309 3.8711-29.797 8.1992-3.8984 16.543-3.5625 19.246-1.7812 2.7109 1.7852 2 7.9141 0.79688 15.746-0.95703 6.1992-2.2695 14.688-10.953 21.93-4.793 3.9961-10.18 6.2344-14.961 7.5273zm-244.54 61.949c-3.5117-4.8438-2.4297-11.641 2.4062-15.16 4.8555-3.5117 11.66-2.4375 15.176 2.3984l2.6758 3.6797c0.003906 0.011718 0.011719 0.027344 0.023437 0.039062 1.707 2.3477 4.4023 3.5508 7.0938 3.4609 1.6172-0.054688 3.2383-0.57812 4.6406-1.6016l3.7188-2.7031c2.3398-1.7031 5.2148-2.3867 8.082-1.9414 2.8672 0.45312 5.3828 1.9922 7.0898 4.3398 3.5156 4.8398 2.4453 11.637-2.3984 15.164l-28.09 20.43zm36.742-75.625c0.66797 4.8477 1.3164 9.3633 2.0234 13.676-4.7812-1.293-10.164-3.5391-14.953-7.5273-8.6875-7.2344-9.9961-15.73-10.953-21.934-1.2109-7.8242-1.9219-13.949 0.80078-15.734 2.6875-1.7852 11.047-2.1211 19.246 1.7812 1.3984 11.637 2.7305 21.699 3.8359 29.738zm5.6992 31.547c1.3711 5.2734 3.0625 10.523 5.2266 15.965-0.41406-0.085938-0.80078-0.25391-1.2266-0.32031-2.6562-0.41406-5.293-0.32031-7.8867 0.015625l3.5-15.719c0.12891 0.019532 0.25781 0.042969 0.38672 0.058594zm58.156 141.2c5.9062-8.0859 10.438-17.176 13.203-26.746 3.0742-10.656 3.6641-20.512 3.1484-28.902 0.3125 0.10547 0.59766 0.24609 0.91406 0.34766 7.7891 2.5312 15.793 3.7969 23.805 3.7969 8.0039 0 16-1.2656 23.777-3.7852 0.3125-0.10156 0.59766-0.24219 0.91406-0.34766-0.51562 8.3906 0.074219 18.246 3.1406 28.891 2.7656 9.5703 7.2969 18.664 13.203 26.746-7.5547 4.7773-21.816 11.352-40.875 11.766-19.328-0.41406-33.664-6.9961-41.23-11.766zm187.81 51.859c-9.0312-8.6758-18.547-16.805-28.582-24.152-18.633-13.613-38.785-24.684-59.887-33.066-6.5703-7.543-11.531-16.492-14.293-26.047-3.6328-12.578-2.9844-23.863-1.4766-31.914 7.9648-4.2344 15.23-9.2227 21.539-15.133 3.4102-3.1914 6.3438-6.4453 9.0273-9.6992 1.8828 4.8047 5.0508 9.1719 9.5195 12.434l3.8125 2.7734c0.015625 0.011719 0.027343 0.027344 0.039062 0.039063l31.84 23.152c1.4453 1.0547 3.168 1.6055 4.9375 1.6055 0.4375 0 0.875-0.035156 1.3086-0.10547 2.1992-0.34766 4.1719-1.5586 5.4805-3.3594l23.152-31.84s0.003907-0.003906 0.003907-0.011719l2.8008-3.8516c9.0781-12.527 6.2812-30.117-6.2266-39.219-6.0742-4.4141-13.52-6.2031-20.906-5.0234-3.2266 0.50781-6.2266 1.6406-9.0117 3.1602l-4.0156-17.496c4.2773-1.8828 8.6523-4.3672 12.773-7.8008 13.57-11.305 15.676-24.941 16.805-32.277 1.5078-9.7422 3.7812-24.473-8.1602-32.328-7.7578-5.1055-18.805-4.8398-28.23-2.1523-0.0625-0.09375-0.13281-0.18359-0.20312-0.28125-0.13281-0.20312-0.26953-0.40234-0.42188-0.58984-0.18359-0.22266-0.39062-0.42969-0.59766-0.64453-0.17969-0.17969-0.35938-0.35938-0.55469-0.51953-0.20703-0.17188-0.42969-0.32422-0.66016-0.47656-0.24219-0.16406-0.48828-0.32031-0.74609-0.46094-0.09375-0.050782-0.16797-0.11719-0.26172-0.16406-21.805-10.625-76.262-41.547-111.02-99.023-4.6992-7.7656-8.7461-14.906-12.312-21.637-0.25391-1.8438-1.125-3.5781-2.543-4.9219-6.832-13.484-11.484-25.258-14.453-36.488 13.809-7.4258 41.469-18.363 67.547-18.363h0.33594c0.57031 0 57.176 0.67188 97.109 39.289 28.965 28.004 33.875 61.113 39.078 96.168 4.9492 33.332 1.7461 65.582-2.4531 95.469-4.4805 31.93 1.6367 63.078 7.5547 93.195 1.4766 7.5391 2.9609 15.102 4.3008 22.727 6.4727 36.988-10.664 79.879-31.949 109.04z"/>
  <path d="m329.95 242.12c2.2773-4.043 0.84375-9.1602-3.1914-11.441-5.6953-3.2031-14.902-6.8828-26.492-6.2109-10 0.57031-19.402 5.8984-22.949 7.9023-4.0391 2.2852-5.4609 7.4102-3.168 11.445 1.5469 2.7266 4.3906 4.2617 7.3203 4.2617 1.4062 0 2.8281-0.35156 4.1328-1.0938 2.6094-1.4766 9.5352-5.3984 15.629-5.7461 7.4648-0.44922 13.559 1.9766 17.289 4.082 4.0391 2.2734 9.1562 0.85156 11.43-3.1992z"/>
  <path d="m346.21 288.59c0 3.707-3.0078 6.7148-6.7148 6.7148s-6.7148-3.0078-6.7148-6.7148c0-3.7109 3.0078-6.7148 6.7148-6.7148s6.7148 3.0039 6.7148 6.7148"/>
  <path d="m368.21 288.59c0 3.707-3.0078 6.7148-6.7148 6.7148-3.7109 0-6.7148-3.0078-6.7148-6.7148 0-3.7109 3.0039-6.7148 6.7148-6.7148 3.707 0 6.7148 3.0039 6.7148 6.7148"/>
  <path d="m323.33 312.66s-6.7148-1.8086-8.4883 1.2148c-0.44141 0.75781-0.33594 2.2695 0.085937 4.1094 3.7227 16.465 20.836 21.801 35.402 22.004v0.011718c0.054687 0 0.11719-0.003906 0.17969-0.003906 0.054688 0 0.11719 0.003906 0.17188 0.003906v-0.011718c14.57-0.20313 31.68-5.5312 35.402-22.004 0.41406-1.8438 0.52734-3.3555 0.085938-4.1094-1.7734-3.0234-8.4883-1.2148-8.4883-1.2148-9.1445 0.85547-18.129 1.6523-27.172 1.8359-9.0547-0.18359-18.035-0.97656-27.18-1.8359z"/>
  <path d="m381.54 245.32c3.7422-2.1055 9.8672-4.5312 17.293-4.082 6.0977 0.35156 13.027 4.2734 15.637 5.7461 1.3047 0.73828 2.7266 1.0938 4.1328 1.0938 2.9219 0 5.7695-1.5352 7.3203-4.2617 2.2852-4.0391 0.86328-9.1602-3.168-11.445-3.543-2.0039-12.945-7.332-22.949-7.9023-11.68-0.69922-20.805 3.0117-26.492 6.2109-4.043 2.2734-5.4805 7.3984-3.2031 11.434 2.2617 4.043 7.3867 5.4766 11.43 3.207z"/>
  <use x="70" y="644" xlink:href="#y"/>
  <use x="90.550781" y="644" xlink:href="#d"/>
  <use x="104.359375" y="644" xlink:href="#a"/>
  <use x="123.347656" y="644" xlink:href="#e"/>
  <use x="142.242188" y="644" xlink:href="#c"/>
  <use x="155.628906" y="644" xlink:href="#a"/>
  <use x="174.617188" y="644" xlink:href="#l"/>
  <use x="204.410156" y="644" xlink:href="#k"/>
  <use x="224.453125" y="644" xlink:href="#j"/>
  <use x="252.453125" y="644" xlink:href="#i"/>
  <use x="280.3125" y="644" xlink:href="#e"/>
  <use x="299.210938" y="644" xlink:href="#x"/>
  <use x="317.269531" y="644" xlink:href="#h"/>
  <use x="326.867188" y="644" xlink:href="#g"/>
  <use x="365.789062" y="644" xlink:href="#w"/>
  <use x="387.488281" y="644" xlink:href="#f"/>
  <use x="407.421875" y="644" xlink:href="#v"/>
  <use x="417.019531" y="644" xlink:href="#h"/>
  <use x="426.617188" y="644" xlink:href="#u"/>
  <use x="445.238281" y="644" xlink:href="#b"/>
  <use x="464.476562" y="644" xlink:href="#t"/>
  <use x="70" y="672" xlink:href="#s"/>
  <use x="82.183594" y="672" xlink:href="#d"/>
  <use x="95.992188" y="672" xlink:href="#b"/>
  <use x="115.226562" y="672" xlink:href="#g"/>
  <use x="154.152344" y="672" xlink:href="#c"/>
  <use x="167.535156" y="672" xlink:href="#r"/>
  <use x="187.46875" y="672" xlink:href="#a"/>
  <use x="216.207031" y="672" xlink:href="#q"/>
  <use x="239.640625" y="672" xlink:href="#b"/>
  <use x="258.878906" y="672" xlink:href="#f"/>
  <use x="278.8125" y="672" xlink:href="#p"/>
  <use x="308.492188" y="672" xlink:href="#o"/>
  <use x="329.015625" y="672" xlink:href="#d"/>
  <use x="342.820312" y="672" xlink:href="#b"/>
  <use x="362.058594" y="672" xlink:href="#n"/>
  <use x="371.65625" y="672" xlink:href="#a"/>
  <use x="390.648438" y="672" xlink:href="#m"/>
  <use x="407.242188" y="672" xlink:href="#c"/>
 </g>
</svg>
